<?xml version="1.0" encoding="UTF-8"?>
<svg width="1633px" height="1024px" viewBox="0 0 1633 1024" version="1.1" xmlns="http://www.w3.org/2000/svg" xmlns:xlink="http://www.w3.org/1999/xlink">
    <!-- Generator: Sketch 50.2 (55047) - http://www.bohemiancoding.com/sketch -->
    <title>Desktop</title>
    <desc>Created with Sketch.</desc>
    <defs>
        <linearGradient x1="93.5837299%" y1="100%" x2="-7.21381467%" y2="100%" id="linearGradient-1">
            <stop stop-color="#000000" stop-opacity="0" offset="0%"></stop>
            <stop stop-color="#000000" stop-opacity="0.2" offset="100%"></stop>
        </linearGradient>
    </defs>
    <g id="Desktop" stroke="none" stroke-width="1" fill="none" fill-rule="evenodd">
        <g id="Group" transform="translate(-285.000000, -284.000000)">
            <polygon id="Rectangle-2" fill="#1C7ED6" points="652 597.226153 2018.89464 0.155266961 2054.44692 3865.30556 652 678.21165"></polygon>
            <polygon id="Rectangle-2" fill="#7048E8" transform="translate(384.024315, 997.000000) rotate(-270.000000) translate(-384.024315, -997.000000) " points="65.024315 728.975685 703.024315 896.089248 703.024315 1265.02432 65.024315 869.655683"></polygon>
            <polygon id="Rectangle-2" fill="url(#linearGradient-1)" transform="translate(729.014157, 997.000000) rotate(-270.000000) translate(-729.014157, -997.000000) " points="410.014157 1073.98584 1048.01416 655.985843 1048.01416 1338.01416 410.014157 1214.66584"></polygon>
            <path d="M379.830008,479.999987 L409.805013,557 L393.41501,557 L386.705009,539.069997 L353.870004,539.069997 L347.160003,557 L331.155,557 L361.130005,479.999987 L379.830008,479.999987 Z M370.315007,495.17999 L359.150005,524.934995 L381.425008,524.934995 L370.315007,495.17999 Z M483.835012,502.274991 C496.375014,502.274991 504.845015,510.689992 504.845015,523.064994 L504.845015,557 L490.545013,557 L490.545013,527.684995 C490.545013,519.984994 486.640012,515.749993 480.150011,515.749993 C473.99001,515.749993 468.875009,519.764994 468.875009,527.794995 L468.875009,557 L454.520007,557 L454.520007,527.684995 C454.520007,519.984994 450.670007,515.749993 444.125005,515.749993 C437.965004,515.749993 432.850004,519.764994 432.850004,527.794995 L432.850004,557 L418.495001,557 L418.495001,503.704991 L432.465004,503.704991 L432.465004,509.974992 C436.260004,504.309991 442.090005,502.274991 448.140006,502.274991 C455.840007,502.274991 462.165008,505.739992 465.740009,511.404993 C469.86501,504.639991 476.850011,502.274991 483.835012,502.274991 Z M571.94501,503.704991 L571.94501,557 L557.920008,557 L557.920008,551.114999 C554.455007,555.405 549.285006,558.375 541.970005,558.375 C527.285003,558.375 516.175001,546.329998 516.175001,530.324996 C516.175001,514.319993 527.285003,502.274991 541.970005,502.274991 C549.285006,502.274991 554.400007,505.244992 557.920008,509.589992 L557.920008,503.704991 L571.94501,503.704991 Z M544.610005,515.639993 C536.195004,515.639993 530.860003,522.184994 530.860003,530.324996 C530.860003,538.464997 536.195004,545.009998 544.610005,545.009998 C552.805007,545.009998 558.360008,538.739997 558.360008,530.324996 C558.360008,521.909994 552.805007,515.639993 544.610005,515.639993 Z M625.680008,503.704991 L625.680008,516.464993 L606.375004,516.464993 L606.375004,535.934997 C606.375004,542.589998 609.895005,545.009998 614.350006,545.009998 C617.760006,545.009998 621.445007,543.304998 624.360007,541.544997 L629.640008,552.764999 C624.965007,555.955 619.575007,558.375 611.985005,558.375 C598.785003,558.375 592.020002,550.894999 592.020002,537.089997 L592.020002,516.464993 L581.735,516.464993 L581.735,503.704991 L592.020002,503.704991 L592.020002,487.864989 L606.375004,487.864989 L606.375004,503.704991 L625.680008,503.704991 Z M652.685004,477.744987 L652.685004,509.424992 C656.480004,504.144991 662.145005,502.274991 667.975006,502.274991 C680.075008,502.274991 688.710009,510.689992 688.710009,523.064994 L688.710009,557 L674.355007,557 L674.355007,527.684995 C674.355007,519.984994 670.505007,515.749993 663.960005,515.749993 C657.800004,515.749993 652.685004,519.764994 652.685004,527.794995 L652.685004,557 L638.330001,557 L638.330001,477.744987 L652.685004,477.744987 Z M728.805005,502.274991 C745.415008,502.274991 757.68001,514.264993 757.68001,530.324996 C757.68001,546.384998 745.415008,558.375 728.805005,558.375 C712.250003,558.375 700.040001,546.384998 700.040001,530.324996 C700.040001,514.264993 712.250003,502.274991 728.805005,502.274991 Z M728.805005,515.639993 C720.720004,515.639993 714.670003,521.689994 714.670003,530.324996 C714.670003,538.959997 720.720004,545.009998 728.805005,545.009998 C736.890007,545.009998 742.995008,538.959997 742.995008,530.324996 C742.995008,521.689994 736.890007,515.639993 728.805005,515.639993 Z M799.040006,502.274991 C811.140008,502.274991 819.775009,510.689992 819.775009,523.064994 L819.775009,557 L805.420007,557 L805.420007,527.684995 C805.420007,519.984994 801.570007,515.749993 795.025005,515.749993 C788.865004,515.749993 783.750004,519.764994 783.750004,527.794995 L783.750004,557 L769.395001,557 L769.395001,503.704991 L783.365004,503.704991 L783.365004,509.974992 C787.160004,504.309991 792.990005,502.274991 799.040006,502.274991 Z" id="Amathon" fill="#FFFFFF"></path>
            <path d="M855.519609,545.00293 L863.4825,545.00293 L863.4825,546.795898 L858.595781,557 L856.503984,557 L861.478594,546.848633 L861.478594,546.743164 L855.519609,546.743164 L855.519609,545.00293 Z M878.679773,558.242 L867.357773,558.242 L867.357773,554.84 L876.501773,554.84 L876.501773,553.778 L867.357773,553.778 L867.357773,552.59 L878.085773,552.59 L878.085773,555.938 L868.959773,555.938 L868.959773,557.036 L878.679773,557.036 L878.679773,558.242 Z M873.909773,545.498 C873.909773,547.136 872.217773,548.09 870.003773,548.09 C867.789773,548.09 866.079773,547.136 866.079773,545.48 C866.079773,543.878 867.789773,542.888 870.003773,542.888 C872.217773,542.888 873.909773,543.842 873.909773,545.498 Z M878.085773,551.96 L876.519773,551.96 L876.519773,551.33 L873.153773,551.33 L873.153773,550.196 L876.519773,550.196 L876.519773,542.528 L878.085773,542.528 L878.085773,551.96 Z M870.723773,551.978 L869.139773,551.978 L869.139773,550.052 C867.717773,550.088 866.457773,550.124 865.161773,550.142 L864.927773,548.828 C866.745773,548.828 868.419773,548.81 870.147773,548.738 C872.163773,548.648 873.711773,548.558 875.205773,548.378 L875.349773,549.566 C874.251773,549.71 872.415773,549.854 870.723773,549.962 L870.723773,551.978 Z M872.307773,545.498 C872.307773,544.616 871.371773,544.13 870.003773,544.13 C868.671773,544.13 867.717773,544.616 867.717773,545.498 C867.717773,546.38 868.689773,546.83 870.003773,546.83 C871.317773,546.83 872.307773,546.38 872.307773,545.498 Z M887.11207,548.492188 L885.204844,548.492188 L885.204844,548.395508 C885.204844,546.567383 886.523203,544.765625 889.159922,544.765625 C891.532969,544.765625 893.079844,546.198242 893.079844,548.09668 C893.079844,549.696289 892.095469,550.71582 891.005625,551.902344 L888.043711,555.154297 L888.043711,555.259766 L893.290781,555.259766 L893.290781,557 L885.275156,557 L885.275156,555.69043 L889.731211,550.8125 C890.381602,550.100586 891.084727,549.30957 891.084727,548.28125 C891.084727,547.200195 890.249766,546.479492 889.115977,546.479492 C887.850352,546.479492 887.11207,547.375977 887.11207,548.386719 L887.11207,548.492188 Z M897.421641,550.759766 L897.421641,551.243164 C897.421641,553.90625 898.36207,555.49707 899.865,555.49707 C901.36793,555.49707 902.29957,553.897461 902.29957,551.243164 L902.29957,550.759766 C902.29957,548.105469 901.36793,546.505859 899.865,546.505859 C898.353281,546.505859 897.421641,548.105469 897.421641,550.759766 Z M895.435313,551.251953 L895.435313,550.750977 C895.435313,547.147461 897.087656,544.765625 899.882578,544.765625 C902.668711,544.765625 904.285898,547.112305 904.285898,550.750977 L904.285898,551.251953 C904.285898,554.864258 902.633555,557.237305 899.847422,557.237305 C897.070078,557.237305 895.435313,554.881836 895.435313,551.251953 Z M919.018477,550.538 L917.416477,550.538 L917.416477,542.528 L919.018477,542.528 L919.018477,550.538 Z M919.576477,558.152 L908.794477,558.152 L908.794477,554.102 L917.416477,554.102 L917.416477,552.644 L908.740477,552.644 L908.740477,551.348 L919.018477,551.348 L919.018477,555.29 L910.378477,555.29 L910.378477,556.838 L919.576477,556.838 L919.576477,558.152 Z M910.576477,543.05 C912.826477,543.05 914.590477,544.508 914.590477,546.632 C914.590477,548.738 912.826477,550.124 910.576477,550.124 C908.362477,550.124 906.544477,548.792 906.544477,546.65 C906.544477,544.544 908.308477,543.05 910.576477,543.05 Z M910.576477,544.418 C909.208477,544.418 908.110477,545.336 908.110477,546.632 C908.110477,547.91 909.172477,548.792 910.576477,548.792 C912.052477,548.792 913.024477,547.856 913.024477,546.632 C913.024477,545.336 912.070477,544.418 910.576477,544.418 Z M922.84418,560.146484 L921.323672,560.146484 L922.413516,554.952148 L924.487734,554.952148 L922.84418,560.146484 Z M938.091445,554.318 L930.729445,554.318 L930.729445,544.112 L938.091445,544.112 L938.091445,554.318 Z M936.489445,553.04 L936.489445,545.408 L932.313445,545.408 L932.313445,553.04 L936.489445,553.04 Z M944.895445,550.088 L942.375445,550.088 L942.375445,558.26 L940.773445,558.26 L940.773445,542.528 L942.375445,542.528 L942.375445,548.774 L944.895445,548.774 L944.895445,550.088 Z M958.701445,550.34 L947.523445,550.34 L947.523445,546.038 L956.667445,546.038 L956.667445,544.418 L947.505445,544.418 L947.505445,543.176 L958.251445,543.176 L958.251445,547.262 L949.125445,547.262 L949.125445,549.062 L958.701445,549.062 L958.701445,550.34 Z M953.661445,558.188 L952.059445,558.188 L952.059445,553.184 L945.795445,553.184 L945.795445,551.906 L959.997445,551.906 L959.997445,553.184 L953.661445,553.184 L953.661445,558.188 Z M970.832813,557 L968.864063,557 L968.864063,547.085938 L968.767383,547.085938 L966.016406,549.045898 L966.016406,547.068359 L968.864063,545.00293 L970.832813,545.00293 L970.832813,557 Z M978.619922,555.664062 C980.034961,555.664062 981.107227,554.820312 981.107227,553.589844 C981.107227,552.350586 980.034961,551.498047 978.619922,551.498047 C977.204883,551.498047 976.123828,552.350586 976.123828,553.589844 C976.123828,554.820312 977.204883,555.664062 978.619922,555.664062 Z M978.619922,549.995117 C979.815234,549.995117 980.685352,549.248047 980.685352,548.158203 C980.685352,547.085938 979.815234,546.356445 978.619922,546.356445 C977.424609,546.356445 976.545703,547.085938 976.545703,548.158203 C976.545703,549.248047 977.424609,549.995117 978.619922,549.995117 Z M978.584766,557.237305 C975.939258,557.237305 974.155078,555.804688 974.155078,553.712891 C974.155078,551.814453 975.578906,550.944336 976.624805,550.71582 L976.624805,550.619141 C975.693164,550.320312 974.629688,549.50293 974.629688,547.947266 C974.629688,546.110352 976.264453,544.765625 978.619922,544.765625 C980.975391,544.765625 982.601367,546.110352 982.601367,547.947266 C982.601367,549.529297 981.493945,550.329102 980.597461,550.619141 L980.597461,550.71582 C981.652148,550.944336 983.067188,551.823242 983.067188,553.704102 C983.067188,555.787109 981.239063,557.237305 978.584766,557.237305 Z M987.25957,550.759766 L987.25957,551.243164 C987.25957,553.90625 988.2,555.49707 989.70293,555.49707 C991.205859,555.49707 992.1375,553.897461 992.1375,551.243164 L992.1375,550.759766 C992.1375,548.105469 991.205859,546.505859 989.70293,546.505859 C988.191211,546.505859 987.25957,548.105469 987.25957,550.759766 Z M985.273242,551.251953 L985.273242,550.750977 C985.273242,547.147461 986.925586,544.765625 989.720508,544.765625 C992.506641,544.765625 994.123828,547.112305 994.123828,550.750977 L994.123828,551.251953 C994.123828,554.864258 992.471484,557.237305 989.685352,557.237305 C986.908008,557.237305 985.273242,554.881836 985.273242,551.251953 Z M999.694406,543.77 C1001.89041,543.77 1003.02441,545.84 1003.15041,548.666 L1004.68041,548.666 L1004.68041,542.834 L1006.19241,542.834 L1006.19241,557.522 L1004.68041,557.522 L1004.68041,549.98 L1003.15041,549.98 C1003.00641,552.77 1001.87241,554.804 999.694406,554.804 C997.354406,554.804 996.238406,552.41 996.238406,549.26 C996.238406,546.128 997.354406,543.77 999.694406,543.77 Z M1001.60241,549.278 C1001.60241,546.83 1000.97241,545.12 999.694406,545.12 C998.452406,545.12 997.804406,546.83 997.804406,549.278 C997.804406,551.744 998.452406,553.436 999.694406,553.436 C1000.97241,553.436 1001.60241,551.744 1001.60241,549.278 Z M1009.23441,558.26 L1007.72241,558.26 L1007.72241,542.528 L1009.23441,542.528 L1009.23441,558.26 Z M1024.49841,558.26 L1022.89641,558.26 L1022.89641,549.404 L1019.38641,549.404 L1019.38641,548.054 L1022.89641,548.054 L1022.89641,542.528 L1024.49841,542.528 L1024.49841,558.26 Z M1020.98841,553.328 L1020.03441,554.516 C1018.63041,553.598 1016.79441,551.636 1016.20041,549.8 C1015.66041,551.726 1014.09441,553.724 1012.33041,554.894 L1011.32241,553.724 C1013.69841,552.23 1015.37241,549.494 1015.37241,546.596 L1015.37241,543.878 L1017.01041,543.878 L1017.01041,546.524 C1017.01041,549.476 1018.77441,551.96 1020.98841,553.328 Z M1040.39459,553.976 L1039.47659,555.146 C1037.91059,554.372 1036.14659,552.59 1035.66059,550.97 C1035.22859,552.626 1033.50059,554.606 1031.75459,555.524 L1030.72859,554.372 C1032.90659,553.256 1034.81459,550.97 1034.81459,547.946 L1034.81459,547.55 L1031.28659,547.55 L1031.28659,546.254 L1039.99859,546.254 L1039.99859,547.55 L1036.47059,547.55 L1036.47059,547.928 C1036.47059,550.952 1038.39659,553.058 1040.39459,553.976 Z M1042.42859,550.754 L1039.24259,550.754 L1039.24259,549.422 L1042.42859,549.422 L1042.42859,542.528 L1044.01259,542.528 L1044.01259,558.26 L1042.42859,558.26 L1042.42859,550.754 Z M1037.98259,544.832 L1033.26659,544.832 L1033.26659,543.518 L1037.98259,543.518 L1037.98259,544.832 Z M1060.89659,551.348 L1046.69459,551.348 L1046.69459,550.052 L1060.89659,550.052 L1060.89659,551.348 Z M1059.16859,558.044 L1048.42259,558.044 L1048.42259,552.878 L1059.16859,552.878 L1059.16859,558.044 Z M1057.58459,556.784 L1057.58459,554.138 L1050.02459,554.138 L1050.02459,556.784 L1057.58459,556.784 Z M1059.20459,545.912 C1059.20459,547.712 1057.22459,548.918 1053.78659,548.918 C1050.36659,548.918 1048.38659,547.712 1048.38659,545.912 C1048.38659,544.112 1050.36659,542.924 1053.78659,542.924 C1057.22459,542.924 1059.20459,544.112 1059.20459,545.912 Z M1057.54859,545.912 C1057.54859,544.886 1056.10859,544.202 1053.78659,544.202 C1051.48259,544.202 1050.06059,544.886 1050.06059,545.912 C1050.06059,546.938 1051.48259,547.622 1053.78659,547.622 C1056.07259,547.622 1057.54859,546.938 1057.54859,545.912 Z M1076.46659,556.136 L1062.26459,556.136 L1062.26459,554.84 L1076.46659,554.84 L1076.46659,556.136 Z M1075.04459,547.946 C1075.04459,550.376 1072.77659,552.032 1069.35659,552.032 C1065.95459,552.032 1063.70459,550.376 1063.70459,547.946 C1063.70459,545.534 1065.95459,543.86 1069.35659,543.86 C1072.79459,543.86 1075.04459,545.534 1075.04459,547.946 Z M1073.42459,547.946 C1073.42459,546.362 1071.82259,545.264 1069.35659,545.264 C1066.92659,545.264 1065.32459,546.362 1065.32459,547.946 C1065.32459,549.548 1066.92659,550.628 1069.35659,550.628 C1071.80459,550.628 1073.42459,549.548 1073.42459,547.946 Z M1092.03659,556.262 L1077.83459,556.262 L1077.83459,554.966 L1084.09859,554.966 L1084.09859,552.482 L1079.54459,552.482 L1079.54459,547.424 L1088.68859,547.424 L1088.68859,545.12 L1079.50859,545.12 L1079.50859,543.824 L1090.27259,543.824 L1090.27259,548.72 L1081.12859,548.72 L1081.12859,551.186 L1090.70459,551.186 L1090.70459,552.482 L1085.70059,552.482 L1085.70059,554.966 L1092.03659,554.966 L1092.03659,556.262 Z M1110.72277,558.26 L1109.19277,558.26 L1109.19277,549.89 L1107.33877,549.89 L1107.33877,557.486 L1105.84477,557.486 L1105.84477,542.888 L1107.33877,542.888 L1107.33877,548.594 L1109.19277,548.594 L1109.19277,542.528 L1110.72277,542.528 L1110.72277,558.26 Z M1104.08077,544.454 C1104.02677,549.116 1102.11877,552.482 1098.28477,555.056 L1097.18677,553.886 C1100.44477,551.996 1102.22677,548.972 1102.49677,545.768 L1097.88877,545.768 L1097.88877,544.454 L1104.08077,544.454 Z M1113.74677,547.1 L1113.74677,545.786 L1122.62077,545.786 L1122.62077,547.1 L1118.98477,547.1 C1119.07477,548.81 1121.16277,550.268 1123.07077,550.628 L1122.27877,551.906 C1120.58677,551.384 1118.93077,550.34 1118.22877,548.99 C1117.70677,550.358 1115.87077,551.744 1114.01677,552.284 L1113.20677,550.988 C1115.38477,550.448 1117.32877,548.846 1117.40077,547.1 L1113.74677,547.1 Z M1126.04077,558.26 L1124.45677,558.26 L1124.45677,542.528 L1126.04077,542.528 L1126.04077,558.26 Z M1123.68277,554.858 C1122.33277,555.02 1120.17277,555.182 1118.24677,555.272 C1116.51877,555.38 1114.61077,555.434 1113.29677,555.416 L1113.02677,554.084 C1114.32277,554.084 1115.85277,554.066 1117.41877,554.012 L1117.41877,551.06 L1119.00277,551.06 L1119.00277,553.94 C1120.69477,553.85 1122.47677,553.742 1123.53877,553.598 L1123.68277,554.858 Z M1116.05077,544.382 L1116.05077,543.05 L1120.38877,543.05 L1120.38877,544.382 L1116.05077,544.382 Z M1141.53877,558.044 L1131.15277,558.044 L1131.15277,552.806 L1141.53877,552.806 L1141.53877,558.044 Z M1139.00077,551.114 C1137.66877,551.258 1135.83277,551.438 1133.92477,551.51 C1132.17877,551.6 1129.89277,551.672 1128.77677,551.672 L1128.54277,550.322 C1129.85677,550.322 1131.42277,550.322 1133.02477,550.268 L1133.02477,548.612 L1129.85677,548.612 L1129.85677,543.374 L1137.70477,543.374 L1137.70477,544.688 L1131.44077,544.688 L1131.44077,547.316 L1137.86677,547.316 L1137.86677,548.612 L1134.60877,548.612 L1134.60877,550.196 C1136.21077,550.106 1137.81277,549.998 1138.85677,549.854 L1139.00077,551.114 Z M1139.93677,556.784 L1139.93677,554.066 L1132.75477,554.066 L1132.75477,556.784 L1139.93677,556.784 Z M1141.52077,552.014 L1139.93677,552.014 L1139.93677,542.528 L1141.52077,542.528 L1141.52077,552.014 Z" id="7월-20일,-마루-180에서-처음으" fill-opacity="0.7" fill="#FFFFFF"></path>
            <polygon id="Rectangle-2" fill="#C2255C" points="0 427 512 596.412721 512 678 0 678"></polygon>
        </g>
    </g>
</svg>