<?xml version="1.0" encoding="UTF-8"?>
<svg width="1633px" height="1024px" viewBox="0 0 1633 1024" version="1.1" xmlns="http://www.w3.org/2000/svg" xmlns:xlink="http://www.w3.org/1999/xlink">
    <!-- Generator: Sketch 50.2 (55047) - http://www.bohemiancoding.com/sketch -->
    <title>Desktop</title>
    <desc>Created with Sketch.</desc>
    <defs>
        <linearGradient x1="93.5837299%" y1="100%" x2="-7.21381467%" y2="100%" id="linearGradient-1">
            <stop stop-color="#000000" stop-opacity="0" offset="0%"></stop>
            <stop stop-color="#000000" stop-opacity="0.2" offset="100%"></stop>
        </linearGradient>
    </defs>
    <g id="Desktop" stroke="none" stroke-width="1" fill="none" fill-rule="evenodd">
        <g id="Group" transform="translate(-285.000000, -284.000000)">
            <polygon id="Rectangle-2" fill="#1C7ED6" points="652 597.226153 2018.89464 0.155266961 2054.44692 3865.30556 652 678.21165"></polygon>
            <polygon id="Rectangle-2" fill="#7048E8" transform="translate(384.024315, 997.000000) rotate(-270.000000) translate(-384.024315, -997.000000) " points="65.024315 728.975685 703.024315 896.089248 703.024315 1265.02432 65.024315 869.655683"></polygon>
            <polygon id="Rectangle-2" fill="url(#linearGradient-1)" transform="translate(729.014157, 997.000000) rotate(-270.000000) translate(-729.014157, -997.000000) " points="410.014157 1073.98584 1048.01416 655.985843 1048.01416 1338.01416 410.014157 1214.66584"></polygon>
            <path d="M401.975005,508.435 L421.050008,557.435008 L410.620006,557.435008 L406.350006,546.025006 L385.455002,546.025006 L381.185002,557.435008 L371,557.435008 L390.075003,508.435 L401.975005,508.435 Z M395.920004,518.095002 L388.815003,537.030005 L402.990005,537.030005 L395.920004,518.095002 Z M468.160007,522.610003 C476.140009,522.610003 481.53001,527.965003 481.53001,535.840005 L481.53001,557.435008 L472.430008,557.435008 L472.430008,538.780005 C472.430008,533.880004 469.945008,531.185004 465.815007,531.185004 C461.895006,531.185004 458.640006,533.740004 458.640006,538.850005 L458.640006,557.435008 L449.505004,557.435008 L449.505004,538.780005 C449.505004,533.880004 447.055004,531.185004 442.890003,531.185004 C438.970003,531.185004 435.715002,533.740004 435.715002,538.850005 L435.715002,557.435008 L426.580001,557.435008 L426.580001,523.520003 L435.470002,523.520003 L435.470002,527.510003 C437.885003,523.905003 441.595003,522.610003 445.445004,522.610003 C450.345005,522.610003 454.370005,524.815003 456.645006,528.420004 C459.270006,524.115003 463.715007,522.610003 468.160007,522.610003 Z M524.230006,523.520003 L524.230006,557.435008 L515.305005,557.435008 L515.305005,553.690008 C513.100004,556.420008 509.810004,558.310008 505.155003,558.310008 C495.810001,558.310008 488.74,550.645007 488.74,540.460005 C488.74,530.275004 495.810001,522.610003 505.155003,522.610003 C509.810004,522.610003 513.065004,524.500003 515.305005,527.265003 L515.305005,523.520003 L524.230006,523.520003 Z M506.835003,531.115004 C501.480002,531.115004 498.085002,535.280005 498.085002,540.460005 C498.085002,545.640006 501.480002,549.805007 506.835003,549.805007 C512.050004,549.805007 515.585005,545.815006 515.585005,540.460005 C515.585005,535.105005 512.050004,531.115004 506.835003,531.115004 Z M558.425005,523.520003 L558.425005,531.640004 L546.140003,531.640004 L546.140003,544.030006 C546.140003,548.265007 548.380003,549.805007 551.215004,549.805007 C553.385004,549.805007 555.730004,548.720007 557.585005,547.600007 L560.945005,554.740008 C557.970005,556.770008 554.540004,558.310008 549.710003,558.310008 C541.310002,558.310008 537.005001,553.550008 537.005001,544.765006 L537.005001,531.640004 L530.46,531.640004 L530.46,523.520003 L537.005001,523.520003 L537.005001,513.440001 L546.140003,513.440001 L546.140003,523.520003 L558.425005,523.520003 Z M575.610002,507 L575.610002,527.160003 C578.025003,523.800003 581.630003,522.610003 585.340004,522.610003 C593.040005,522.610003 598.535006,527.965003 598.535006,535.840005 L598.535006,557.435008 L589.400004,557.435008 L589.400004,538.780005 C589.400004,533.880004 586.950004,531.185004 582.785003,531.185004 C578.865003,531.185004 575.610002,533.740004 575.610002,538.850005 L575.610002,557.435008 L566.475001,557.435008 L566.475001,507 L575.610002,507 Z M624.050003,522.610003 C634.620005,522.610003 642.425006,530.240004 642.425006,540.460005 C642.425006,550.680007 634.620005,558.310008 624.050003,558.310008 C613.515002,558.310008 605.745,550.680007 605.745,540.460005 C605.745,530.240004 613.515002,522.610003 624.050003,522.610003 Z M624.050003,531.115004 C618.905002,531.115004 615.055002,534.965005 615.055002,540.460005 C615.055002,545.955006 618.905002,549.805007 624.050003,549.805007 C629.195004,549.805007 633.080005,545.955006 633.080005,540.460005 C633.080005,534.965005 629.195004,531.115004 624.050003,531.115004 Z M668.745004,522.610003 C676.445005,522.610003 681.940006,527.965003 681.940006,535.840005 L681.940006,557.435008 L672.805004,557.435008 L672.805004,538.780005 C672.805004,533.880004 670.355004,531.185004 666.190003,531.185004 C662.270003,531.185004 659.015002,533.740004 659.015002,538.850005 L659.015002,557.435008 L649.880001,557.435008 L649.880001,523.520003 L658.770002,523.520003 L658.770002,527.510003 C661.185003,523.905003 664.895003,522.610003 668.745004,522.610003 Z" id="Amathon" fill="#FFFFFF"></path>
            <polygon id="Rectangle-2" fill="#C2255C" points="0 427 512 596.412721 512 678 0 678"></polygon>
            <g id="Group-2" transform="translate(374.000000, 577.000000)" fill="#FFFFFF" fill-opacity="0.7">
                <path d="M0.84640625,3.00195312 L6.155,3.00195312 L6.155,4.19726562 L2.8971875,11 L1.50265625,11 L4.8190625,4.23242188 L4.8190625,4.16210938 L0.84640625,4.16210938 L0.84640625,3.00195312 Z M16.2865156,11.828 L8.73851562,11.828 L8.73851562,9.56 L14.8345156,9.56 L14.8345156,8.852 L8.73851562,8.852 L8.73851562,8.06 L15.8905156,8.06 L15.8905156,10.292 L9.80651562,10.292 L9.80651562,11.024 L16.2865156,11.024 L16.2865156,11.828 Z M13.1065156,3.332 C13.1065156,4.424 11.9785156,5.06 10.5025156,5.06 C9.02651563,5.06 7.88651563,4.424 7.88651563,3.32 C7.88651563,2.252 9.02651563,1.592 10.5025156,1.592 C11.9785156,1.592 13.1065156,2.228 13.1065156,3.332 Z M15.8905156,7.64 L14.8465156,7.64 L14.8465156,7.22 L12.6025156,7.22 L12.6025156,6.464 L14.8465156,6.464 L14.8465156,1.352 L15.8905156,1.352 L15.8905156,7.64 Z M10.9825156,7.652 L9.92651562,7.652 L9.92651562,6.368 C8.97851562,6.392 8.13851562,6.416 7.27451563,6.428 L7.11851562,5.552 C8.33051562,5.552 9.44651562,5.54 10.5985156,5.492 C11.9425156,5.432 12.9745156,5.372 13.9705156,5.252 L14.0665156,6.044 C13.3345156,6.14 12.1105156,6.236 10.9825156,6.308 L10.9825156,7.652 Z M12.0385156,3.332 C12.0385156,2.744 11.4145156,2.42 10.5025156,2.42 C9.61451562,2.42 8.97851562,2.744 8.97851562,3.332 C8.97851562,3.92 9.62651563,4.22 10.5025156,4.22 C11.3785156,4.22 12.0385156,3.92 12.0385156,3.332 Z M21.9080469,5.328125 L20.6365625,5.328125 L20.6365625,5.26367188 C20.6365625,4.04492188 21.5154687,2.84375 23.2732812,2.84375 C24.8553125,2.84375 25.8865625,3.79882812 25.8865625,5.06445312 C25.8865625,6.13085938 25.2303125,6.81054688 24.50375,7.6015625 L22.5291406,9.76953125 L22.5291406,9.83984375 L26.0271875,9.83984375 L26.0271875,11 L20.6834375,11 L20.6834375,10.1269531 L23.6541406,6.875 C24.0877344,6.40039062 24.5564844,5.87304688 24.5564844,5.1875 C24.5564844,4.46679688 23.9998437,3.98632812 23.2439844,3.98632812 C22.4002344,3.98632812 21.9080469,4.58398438 21.9080469,5.2578125 L21.9080469,5.328125 Z M28.7810937,6.83984375 L28.7810937,7.16210938 C28.7810937,8.9375 29.4080469,9.99804688 30.41,9.99804688 C31.4119531,9.99804688 32.0330469,8.93164062 32.0330469,7.16210938 L32.0330469,6.83984375 C32.0330469,5.0703125 31.4119531,4.00390625 30.41,4.00390625 C29.4021875,4.00390625 28.7810937,5.0703125 28.7810937,6.83984375 Z M27.456875,7.16796875 L27.456875,6.83398438 C27.456875,4.43164062 28.5584375,2.84375 30.4217187,2.84375 C32.2791406,2.84375 33.3572656,4.40820312 33.3572656,6.83398438 L33.3572656,7.16796875 C33.3572656,9.57617188 32.2557031,11.1582031 30.3982812,11.1582031 C28.5467187,11.1582031 27.456875,9.58789062 27.456875,7.16796875 Z M43.1789844,6.692 L42.1109844,6.692 L42.1109844,1.352 L43.1789844,1.352 L43.1789844,6.692 Z M43.5509844,11.768 L36.3629844,11.768 L36.3629844,9.068 L42.1109844,9.068 L42.1109844,8.096 L36.3269844,8.096 L36.3269844,7.232 L43.1789844,7.232 L43.1789844,9.86 L37.4189844,9.86 L37.4189844,10.892 L43.5509844,10.892 L43.5509844,11.768 Z M37.5509844,1.7 C39.0509844,1.7 40.2269844,2.672 40.2269844,4.088 C40.2269844,5.492 39.0509844,6.416 37.5509844,6.416 C36.0749844,6.416 34.8629844,5.528 34.8629844,4.1 C34.8629844,2.696 36.0389844,1.7 37.5509844,1.7 Z M37.5509844,2.612 C36.6389844,2.612 35.9069844,3.224 35.9069844,4.088 C35.9069844,4.94 36.6149844,5.528 37.5509844,5.528 C38.5349844,5.528 39.1829844,4.904 39.1829844,4.088 C39.1829844,3.224 38.5469844,2.612 37.5509844,2.612 Z M45.7294531,13.0976562 L44.7157812,13.0976562 L45.4423437,9.63476562 L46.8251562,9.63476562 L45.7294531,13.0976562 Z M55.8942969,9.212 L50.9862969,9.212 L50.9862969,2.408 L55.8942969,2.408 L55.8942969,9.212 Z M54.8262969,8.36 L54.8262969,3.272 L52.0422969,3.272 L52.0422969,8.36 L54.8262969,8.36 Z M60.4302969,6.392 L58.7502969,6.392 L58.7502969,11.84 L57.6822969,11.84 L57.6822969,1.352 L58.7502969,1.352 L58.7502969,5.516 L60.4302969,5.516 L60.4302969,6.392 Z M69.6342969,6.56 L62.1822969,6.56 L62.1822969,3.692 L68.2782969,3.692 L68.2782969,2.612 L62.1702969,2.612 L62.1702969,1.784 L69.3342969,1.784 L69.3342969,4.508 L63.2502969,4.508 L63.2502969,5.708 L69.6342969,5.708 L69.6342969,6.56 Z M66.2742969,11.792 L65.2062969,11.792 L65.2062969,8.456 L61.0302969,8.456 L61.0302969,7.604 L70.4982969,7.604 L70.4982969,8.456 L66.2742969,8.456 L66.2742969,11.792 Z M77.721875,11 L76.409375,11 L76.409375,4.390625 L76.3449219,4.390625 L74.5109375,5.69726562 L74.5109375,4.37890625 L76.409375,3.00195312 L77.721875,3.00195312 L77.721875,11 Z M82.9132812,10.109375 C83.8566406,10.109375 84.5714844,9.546875 84.5714844,8.7265625 C84.5714844,7.90039062 83.8566406,7.33203125 82.9132812,7.33203125 C81.9699219,7.33203125 81.2492187,7.90039062 81.2492187,8.7265625 C81.2492187,9.546875 81.9699219,10.109375 82.9132812,10.109375 Z M82.9132812,6.33007812 C83.7101562,6.33007812 84.2902344,5.83203125 84.2902344,5.10546875 C84.2902344,4.390625 83.7101562,3.90429688 82.9132812,3.90429688 C82.1164062,3.90429688 81.5304687,4.390625 81.5304687,5.10546875 C81.5304687,5.83203125 82.1164062,6.33007812 82.9132812,6.33007812 Z M82.8898437,11.1582031 C81.1261719,11.1582031 79.9367187,10.203125 79.9367187,8.80859375 C79.9367187,7.54296875 80.8859375,6.96289062 81.5832031,6.81054688 L81.5832031,6.74609375 C80.9621094,6.546875 80.253125,6.00195312 80.253125,4.96484375 C80.253125,3.74023438 81.3429687,2.84375 82.9132812,2.84375 C84.4835937,2.84375 85.5675781,3.74023438 85.5675781,4.96484375 C85.5675781,6.01953125 84.8292969,6.55273438 84.2316406,6.74609375 L84.2316406,6.81054688 C84.9347656,6.96289062 85.878125,7.54882812 85.878125,8.80273438 C85.878125,10.1914062 84.659375,11.1582031 82.8898437,11.1582031 Z M88.6730469,6.83984375 L88.6730469,7.16210938 C88.6730469,8.9375 89.3,9.99804688 90.3019531,9.99804688 C91.3039062,9.99804688 91.925,8.93164062 91.925,7.16210938 L91.925,6.83984375 C91.925,5.0703125 91.3039062,4.00390625 90.3019531,4.00390625 C89.2941406,4.00390625 88.6730469,5.0703125 88.6730469,6.83984375 Z M87.3488281,7.16796875 L87.3488281,6.83398438 C87.3488281,4.43164062 88.4503906,2.84375 90.3136719,2.84375 C92.1710937,2.84375 93.2492187,4.40820312 93.2492187,6.83398438 L93.2492187,7.16796875 C93.2492187,9.57617188 92.1476562,11.1582031 90.2902344,11.1582031 C88.4386719,11.1582031 87.3488281,9.58789062 87.3488281,7.16796875 Z M96.9629375,2.18 C98.4269375,2.18 99.1829375,3.56 99.2669375,5.444 L100.286938,5.444 L100.286938,1.556 L101.294938,1.556 L101.294938,11.348 L100.286938,11.348 L100.286938,6.32 L99.2669375,6.32 C99.1709375,8.18 98.4149375,9.536 96.9629375,9.536 C95.4029375,9.536 94.6589375,7.94 94.6589375,5.84 C94.6589375,3.752 95.4029375,2.18 96.9629375,2.18 Z M98.2349375,5.852 C98.2349375,4.22 97.8149375,3.08 96.9629375,3.08 C96.1349375,3.08 95.7029375,4.22 95.7029375,5.852 C95.7029375,7.496 96.1349375,8.624 96.9629375,8.624 C97.8149375,8.624 98.2349375,7.496 98.2349375,5.852 Z M103.322937,11.84 L102.314938,11.84 L102.314938,1.352 L103.322937,1.352 L103.322937,11.84 Z M113.498938,11.84 L112.430938,11.84 L112.430938,5.936 L110.090937,5.936 L110.090937,5.036 L112.430938,5.036 L112.430938,1.352 L113.498938,1.352 L113.498938,11.84 Z M111.158937,8.552 L110.522938,9.344 C109.586937,8.732 108.362938,7.424 107.966937,6.2 C107.606937,7.484 106.562937,8.816 105.386938,9.596 L104.714938,8.816 C106.298937,7.82 107.414937,5.996 107.414937,4.064 L107.414937,2.252 L108.506938,2.252 L108.506938,4.016 C108.506938,5.984 109.682937,7.64 111.158937,8.552 Z M124.096391,8.984 L123.484391,9.764 C122.440391,9.248 121.264391,8.06 120.940391,6.98 C120.652391,8.084 119.500391,9.404 118.336391,10.016 L117.652391,9.248 C119.104391,8.504 120.376391,6.98 120.376391,4.964 L120.376391,4.7 L118.024391,4.7 L118.024391,3.836 L123.832391,3.836 L123.832391,4.7 L121.480391,4.7 L121.480391,4.952 C121.480391,6.968 122.764391,8.372 124.096391,8.984 Z M125.452391,6.836 L123.328391,6.836 L123.328391,5.948 L125.452391,5.948 L125.452391,1.352 L126.508391,1.352 L126.508391,11.84 L125.452391,11.84 L125.452391,6.836 Z M122.488391,2.888 L119.344391,2.888 L119.344391,2.012 L122.488391,2.012 L122.488391,2.888 Z M137.764391,7.232 L128.296391,7.232 L128.296391,6.368 L137.764391,6.368 L137.764391,7.232 Z M136.612391,11.696 L129.448391,11.696 L129.448391,8.252 L136.612391,8.252 L136.612391,11.696 Z M135.556391,10.856 L135.556391,9.092 L130.516391,9.092 L130.516391,10.856 L135.556391,10.856 Z M136.636391,3.608 C136.636391,4.808 135.316391,5.612 133.024391,5.612 C130.744391,5.612 129.424391,4.808 129.424391,3.608 C129.424391,2.408 130.744391,1.616 133.024391,1.616 C135.316391,1.616 136.636391,2.408 136.636391,3.608 Z M135.532391,3.608 C135.532391,2.924 134.572391,2.468 133.024391,2.468 C131.488391,2.468 130.540391,2.924 130.540391,3.608 C130.540391,4.292 131.488391,4.748 133.024391,4.748 C134.548391,4.748 135.532391,4.292 135.532391,3.608 Z M148.144391,10.424 L138.676391,10.424 L138.676391,9.56 L148.144391,9.56 L148.144391,10.424 Z M147.196391,4.964 C147.196391,6.584 145.684391,7.688 143.404391,7.688 C141.136391,7.688 139.636391,6.584 139.636391,4.964 C139.636391,3.356 141.136391,2.24 143.404391,2.24 C145.696391,2.24 147.196391,3.356 147.196391,4.964 Z M146.116391,4.964 C146.116391,3.908 145.048391,3.176 143.404391,3.176 C141.784391,3.176 140.716391,3.908 140.716391,4.964 C140.716391,6.032 141.784391,6.752 143.404391,6.752 C145.036391,6.752 146.116391,6.032 146.116391,4.964 Z M158.524391,10.508 L149.056391,10.508 L149.056391,9.644 L153.232391,9.644 L153.232391,7.988 L150.196391,7.988 L150.196391,4.616 L156.292391,4.616 L156.292391,3.08 L150.172391,3.08 L150.172391,2.216 L157.348391,2.216 L157.348391,5.48 L151.252391,5.48 L151.252391,7.124 L157.636391,7.124 L157.636391,7.988 L154.300391,7.988 L154.300391,9.644 L158.524391,9.644 L158.524391,10.508 Z M170.981844,11.84 L169.961844,11.84 L169.961844,6.26 L168.725844,6.26 L168.725844,11.324 L167.729844,11.324 L167.729844,1.592 L168.725844,1.592 L168.725844,5.396 L169.961844,5.396 L169.961844,1.352 L170.981844,1.352 L170.981844,11.84 Z M166.553844,2.636 C166.517844,5.744 165.245844,7.988 162.689844,9.704 L161.957844,8.924 C164.129844,7.664 165.317844,5.648 165.497844,3.512 L162.425844,3.512 L162.425844,2.636 L166.553844,2.636 Z M172.997844,4.4 L172.997844,3.524 L178.913844,3.524 L178.913844,4.4 L176.489844,4.4 C176.549844,5.54 177.941844,6.512 179.213844,6.752 L178.685844,7.604 C177.557844,7.256 176.453844,6.56 175.985844,5.66 C175.637844,6.572 174.413844,7.496 173.177844,7.856 L172.637844,6.992 C174.089844,6.632 175.385844,5.564 175.433844,4.4 L172.997844,4.4 Z M181.193844,11.84 L180.137844,11.84 L180.137844,1.352 L181.193844,1.352 L181.193844,11.84 Z M179.621844,9.572 C178.721844,9.68 177.281844,9.788 175.997844,9.848 C174.845844,9.92 173.573844,9.956 172.697844,9.944 L172.517844,9.056 C173.381844,9.056 174.401844,9.044 175.445844,9.008 L175.445844,7.04 L176.501844,7.04 L176.501844,8.96 C177.629844,8.9 178.817844,8.828 179.525844,8.732 L179.621844,9.572 Z M174.533844,2.588 L174.533844,1.7 L177.425844,1.7 L177.425844,2.588 L174.533844,2.588 Z M191.525844,11.696 L184.601844,11.696 L184.601844,8.204 L191.525844,8.204 L191.525844,11.696 Z M189.833844,7.076 C188.945844,7.172 187.721844,7.292 186.449844,7.34 C185.285844,7.4 183.761844,7.448 183.017844,7.448 L182.861844,6.548 C183.737844,6.548 184.781844,6.548 185.849844,6.512 L185.849844,5.408 L183.737844,5.408 L183.737844,1.916 L188.969844,1.916 L188.969844,2.792 L184.793844,2.792 L184.793844,4.544 L189.077844,4.544 L189.077844,5.408 L186.905844,5.408 L186.905844,6.464 C187.973844,6.404 189.041844,6.332 189.737844,6.236 L189.833844,7.076 Z M190.457844,10.856 L190.457844,9.044 L185.669844,9.044 L185.669844,10.856 L190.457844,10.856 Z M191.513844,7.676 L190.457844,7.676 L190.457844,1.352 L191.513844,1.352 L191.513844,7.676 Z" id="7월-20일,-마루-180에서-처음으"></path>
            </g>
        </g>
    </g>
</svg>