<?xml version="1.0" encoding="UTF-8"?>
<svg width="141px" height="15px" viewBox="0 0 141 15" version="1.1" xmlns="http://www.w3.org/2000/svg" xmlns:xlink="http://www.w3.org/1999/xlink">
    <!-- Generator: Sketch 50.2 (55047) - http://www.bohemiancoding.com/sketch -->
    <title>상단 로고</title>
    <desc>Created with Sketch.</desc>
    <defs></defs>
    <g id="Page-1" stroke="none" stroke-width="1" fill="none" fill-rule="evenodd">
        <g id="Desktop" transform="translate(-627.000000, -18.000000)" fill="#F8F9FA">
            <g id="상단" transform="translate(609.000000, 0.000000)">
                <g id="상단-로고" transform="translate(18.000000, 18.000000)">
                    <path d="M8.88023191,0.419508868 L14.3488493,14.7442019 L11.3586695,14.7442019 L10.134502,11.4085948 L4.14410822,11.4085948 L2.91994066,14.7442019 L0,14.7442019 L5.46861739,0.419508868 L8.88023191,0.419508868 Z M7.14432217,3.24351978 L5.10738762,8.77899045 L9.17122256,8.77899045 L7.14432217,3.24351978 Z M27.8548267,4.56343793 C30.1426153,4.56343793 31.687876,6.12892224 31.687876,8.43110505 L31.687876,14.7442019 L29.0789943,14.7442019 L29.0789943,9.29058663 C29.0789943,7.85811733 28.3665689,7.07025921 27.182538,7.07025921 C26.058712,7.07025921 25.1255351,7.81718963 25.1255351,9.31105048 L25.1255351,14.7442019 L22.5066192,14.7442019 L22.5066192,9.29058663 C22.5066192,7.85811733 21.804228,7.07025921 20.6101629,7.07025921 C19.486337,7.07025921 18.5531601,7.81718963 18.5531601,9.31105048 L18.5531601,14.7442019 L15.9342442,14.7442019 L15.9342442,4.82946794 L18.4829209,4.82946794 L18.4829209,5.99590723 C19.175278,4.9420191 20.238899,4.56343793 21.3426566,4.56343793 C22.7474391,4.56343793 23.9013675,5.20804911 24.5535879,6.26193724 C25.30615,5.00341064 26.5804883,4.56343793 27.8548267,4.56343793 Z M43.9295486,4.82946794 L43.9295486,14.7442019 L41.3708377,14.7442019 L41.3708377,13.6493861 C40.7386856,14.4474761 39.7954745,15 38.4609312,15 C35.7818104,15 33.75491,12.7592087 33.75491,9.78171896 C33.75491,6.8042292 35.7818104,4.56343793 38.4609312,4.56343793 C39.7954745,4.56343793 40.7286514,5.1159618 41.3708377,5.92428377 L41.3708377,4.82946794 L43.9295486,4.82946794 Z M38.9425709,7.04979536 C37.4073443,7.04979536 36.4340308,8.26739427 36.4340308,9.78171896 C36.4340308,11.2960437 37.4073443,12.5136426 38.9425709,12.5136426 C40.4376608,12.5136426 41.451111,11.3472033 41.451111,9.78171896 C41.451111,8.21623465 40.4376608,7.04979536 38.9425709,7.04979536 Z M53.7329212,4.82946794 L53.7329212,7.20327422 L50.2109309,7.20327422 L50.2109309,10.8253752 C50.2109309,12.0634379 50.8531172,12.5136426 51.6658842,12.5136426 C52.2880021,12.5136426 52.9602909,12.1964529 53.4921014,11.8690314 L54.4553807,13.9563438 C53.6024771,14.5497954 52.6191294,15 51.2344153,15 C48.8262168,15 47.5920151,13.6084584 47.5920151,11.0402456 L47.5920151,7.20327422 L45.7156271,7.20327422 L45.7156271,4.82946794 L47.5920151,4.82946794 L47.5920151,1.88267394 L50.2109309,1.88267394 L50.2109309,4.82946794 L53.7329212,4.82946794 Z M58.6596924,0 L58.6596924,5.89358799 C59.3520495,4.91132333 60.385568,4.56343793 61.449189,4.56343793 C63.6567042,4.56343793 65.2320674,6.12892224 65.2320674,8.43110505 L65.2320674,14.7442019 L62.6131516,14.7442019 L62.6131516,9.29058663 C62.6131516,7.85811733 61.9107603,7.07025921 60.7166953,7.07025921 C59.5928693,7.07025921 58.6596924,7.81718963 58.6596924,9.31105048 L58.6596924,14.7442019 L56.0407765,14.7442019 L56.0407765,0 L58.6596924,0 Z M72.5469684,4.56343793 C75.5772848,4.56343793 77.8149026,6.79399727 77.8149026,9.78171896 C77.8149026,12.7694407 75.5772848,15 72.5469684,15 C69.5266861,15 67.2991025,12.7694407 67.2991025,9.78171896 C67.2991025,6.79399727 69.5266861,4.56343793 72.5469684,4.56343793 Z M72.5469684,7.04979536 C71.0719468,7.04979536 69.9681892,8.17530696 69.9681892,9.78171896 C69.9681892,11.388131 71.0719468,12.5136426 72.5469684,12.5136426 C74.0219899,12.5136426 75.1357817,11.388131 75.1357817,9.78171896 C75.1357817,8.17530696 74.0219899,7.04979536 72.5469684,7.04979536 Z M85.3605892,4.56343793 C87.5681044,4.56343793 89.1434676,6.12892224 89.1434676,8.43110505 L89.1434676,14.7442019 L86.5245518,14.7442019 L86.5245518,9.29058663 C86.5245518,7.85811733 85.8221605,7.07025921 84.6280955,7.07025921 C83.5042695,7.07025921 82.5710926,7.81718963 82.5710926,9.31105048 L82.5710926,14.7442019 L79.9521767,14.7442019 L79.9521767,4.82946794 L82.5008535,4.82946794 L82.5008535,5.99590723 C83.1932105,4.9420191 84.2568315,4.56343793 85.3605892,4.56343793 Z M97.8230136,4.3792633 L96.0770697,2.62960437 C96.8396658,1.61664393 98.2645166,0.163710778 100.873398,0.163710778 C103.813407,0.163710778 105.639624,2.04638472 105.639624,4.78854025 C105.639624,6.53819918 104.766653,7.75579809 103.612724,8.973397 L100.61251,12.1555252 L105.980786,12.1555252 L105.980786,14.7442019 L96.6991876,14.7442019 L96.6991876,12.585266 L101.666097,7.39768076 C102.408625,6.63028649 102.820025,5.84242838 102.820025,4.9420191 C102.820025,3.69372442 101.967122,2.80354707 100.672715,2.80354707 C99.3381718,2.80354707 98.5454731,3.54024557 97.8230136,4.3792633 Z M113.787361,0.163710778 C117.13877,0.163710778 119.847994,2.946794 119.847994,7.58185539 C119.847994,12.2169168 117.13877,15 113.787361,15 C110.425917,15 107.736762,12.2169168 107.736762,7.58185539 C107.736762,2.946794 110.425917,0.163710778 113.787361,0.163710778 Z M113.787361,2.81377899 C111.991246,2.81377899 110.556361,4.45088677 110.556361,7.58185539 C110.556361,10.712824 111.991246,12.3499318 113.787361,12.3499318 C115.59351,12.3499318 117.01836,10.712824 117.01836,7.58185539 C117.01836,4.45088677 115.59351,2.81377899 113.787361,2.81377899 Z M127.494022,0.194406548 L127.494022,14.7442019 L124.784798,14.7442019 L124.784798,4.08253752 L121.423355,5.47407913 L121.423355,2.69099591 L127.494022,0.194406548 Z M135.511314,0.163710778 C138.350982,0.163710778 140.658839,1.69849932 140.658839,4.27694407 C140.658839,5.92428377 139.725662,6.94747613 138.511528,7.52046385 C139.896242,8.07298772 141,9.09618008 141,10.845839 C141,13.4549795 138.531597,15 135.511314,15 C132.491032,15 130.022629,13.4549795 130.022629,10.845839 C130.022629,9.09618008 131.116352,8.07298772 132.501066,7.52046385 C131.286933,6.94747613 130.36379,5.92428377 130.36379,4.27694407 C130.36379,1.69849932 132.671647,0.163710778 135.511314,0.163710778 Z M135.511314,8.64597544 C134.106532,8.64597544 132.942569,9.33151432 132.942569,10.6105048 C132.942569,11.8690314 134.106532,12.5341064 135.511314,12.5341064 C136.906063,12.5341064 138.080059,11.8690314 138.080059,10.6105048 C138.080059,9.33151432 136.906063,8.64597544 135.511314,8.64597544 Z M135.511314,2.66030014 C134.257044,2.66030014 133.243594,3.30491132 133.243594,4.49181446 C133.243594,5.71964529 134.257044,6.3744884 135.511314,6.3744884 C136.765584,6.3744884 137.779035,5.71964529 137.779035,4.49181446 C137.779035,3.30491132 136.765584,2.66030014 135.511314,2.66030014 Z" id="Amathon-2018"></path>
                </g>
            </g>
        </g>
    </g>
</svg>